<svg xmlns="http://www.w3.org/2000/svg" xmlns:xlink="http://www.w3.org/1999/xlink" width="500" zoomAndPan="magnify" viewBox="0 0 375 374.999991" height="500" preserveAspectRatio="xMidYMid meet" version="1.2"><defs><clipPath id="a3bd6d0949"><path d="M 136 54 L 240 54 L 240 293.945312 L 136 293.945312 Z M 136 54 "/></clipPath></defs><g id="b805fc516b"><path style=" stroke:none;fill-rule:nonzero;fill:#545454;fill-opacity:1;" d="M 102.324219 259.921875 C 97.222656 259.921875 93.824219 258.222656 90.421875 254.820312 L 22.394531 186.796875 C 15.59375 179.992188 15.59375 169.789062 22.394531 162.984375 L 90.421875 94.960938 C 97.222656 88.160156 107.429688 88.160156 114.230469 94.960938 C 121.03125 101.761719 121.03125 111.96875 114.230469 118.769531 L 58.109375 174.890625 L 114.230469 231.011719 C 121.03125 237.8125 121.03125 248.019531 114.230469 254.820312 C 110.828125 258.222656 107.429688 259.921875 102.324219 259.921875 Z M 102.324219 259.921875 "/><path style=" stroke:none;fill-rule:nonzero;fill:#545454;fill-opacity:1;" d="M 272.390625 259.921875 C 267.289062 259.921875 263.886719 258.222656 260.484375 254.820312 C 253.683594 248.019531 253.683594 237.8125 260.484375 231.011719 L 316.605469 174.890625 L 260.484375 118.769531 C 253.683594 111.96875 253.683594 101.761719 260.484375 94.960938 C 267.289062 88.160156 277.492188 88.160156 284.292969 94.960938 L 352.320312 162.984375 C 359.121094 169.789062 359.121094 179.992188 352.320312 186.796875 L 284.292969 254.820312 C 280.894531 258.222656 277.492188 259.921875 272.390625 259.921875 Z M 272.390625 259.921875 "/><g clip-rule="nonzero" clip-path="url(#a3bd6d0949)"><path style=" stroke:none;fill-rule:nonzero;fill:#545454;fill-opacity:1;" d="M 153.34375 293.933594 C 151.644531 293.933594 149.945312 293.933594 148.242188 292.234375 C 139.738281 288.832031 134.636719 280.332031 138.039062 270.125 L 206.066406 66.050781 C 209.464844 57.546875 217.96875 52.445312 228.171875 55.847656 C 236.675781 59.246094 241.777344 67.75 238.375 77.953125 L 170.351562 282.03125 C 166.949219 288.832031 160.148438 293.933594 153.34375 293.933594 Z M 153.34375 293.933594 "/></g></g></svg>