<svg xmlns="http://www.w3.org/2000/svg" xmlns:xlink="http://www.w3.org/1999/xlink" width="1920" zoomAndPan="magnify" viewBox="0 0 1440 809.999993" height="1080" preserveAspectRatio="xMidYMid meet" version="1.2"><defs><clipPath id="b536be0e19"><path d="M 26 121.25 L 1412 121.25 L 1412 713 L 26 713 Z M 26 121.25 "/></clipPath></defs><g id="168ac3fedb"><g clip-rule="nonzero" clip-path="url(#b536be0e19)"><path style=" stroke:none;fill-rule:nonzero;fill:#d9d9d9;fill-opacity:1;" d="M 1075.863281 713 C 1066.210938 713 1056.558594 706.363281 1051.433594 697.917969 C 1046.304688 689.777344 1044.496094 680.425781 1042.683594 671.378906 C 1042.082031 668.964844 1041.480469 666.25 1040.875 663.839844 C 1037.558594 649.664062 1031.828125 640.613281 1023.984375 636.089844 C 1020.066406 633.679688 1015.539062 632.773438 1010.714844 631.566406 C 1004.984375 630.359375 999.253906 628.851562 994.125 625.535156 C 978.441406 614.375 981.460938 591.453125 984.777344 575.167969 C 984.777344 574.5625 985.378906 573.960938 985.984375 573.660156 C 1007.699219 561.292969 1034.84375 560.085938 1057.765625 570.039062 C 1058.972656 560.386719 1054.449219 550.132812 1046.605469 544.703125 C 1041.175781 541.085938 1034.84375 539.578125 1027.90625 537.765625 C 1023.984375 536.863281 1019.761719 535.957031 1015.84375 534.449219 C 1007.398438 531.132812 1001.667969 526.003906 995.632812 520.273438 L 994.429688 519.066406 C 992.921875 517.558594 991.109375 516.351562 989.601562 515.148438 C 984.476562 511.226562 979.347656 507.304688 979.347656 498.859375 C 979.347656 494.9375 979.347656 490.71875 980.554688 486.496094 L 981.15625 484.082031 C 987.792969 462.96875 992.316406 447.890625 983.871094 425.871094 C 975.730469 405.0625 952.808594 386.359375 928.375 390.582031 C 923.25 391.488281 918.421875 393.601562 914.203125 396.617188 C 914.804688 397.21875 915.105469 398.125 915.710938 398.726562 C 925.359375 413.203125 934.105469 429.792969 926.566406 444.570312 C 926.265625 445.175781 925.664062 445.777344 924.757812 445.777344 C 917.820312 446.683594 910.882812 444.269531 905.453125 438.839844 C 899.121094 432.808594 895.804688 424.0625 896.707031 415.917969 C 897.613281 408.078125 901.835938 400.839844 908.167969 395.410156 C 899.421875 382.441406 890.074219 369.167969 877.707031 358.914062 C 872.277344 354.390625 866.546875 351.074219 860.214844 347.453125 C 856.59375 345.34375 852.671875 343.230469 849.054688 340.515625 C 847.246094 339.3125 844.832031 339.007812 843.625 339.3125 C 843.023438 339.613281 842.722656 339.914062 842.722656 340.214844 C 841.816406 342.929688 846.039062 348.058594 849.355469 351.976562 C 851.46875 354.390625 852.976562 356.503906 853.878906 358.011719 C 855.386719 361.027344 855.386719 364.34375 853.578125 367.359375 C 851.769531 371.28125 847.546875 374.597656 843.324219 375.804688 C 836.992188 377.3125 830.65625 375.503906 825.527344 373.390625 C 821.003906 393.601562 814.671875 413.808594 795.066406 424.363281 C 792.652344 425.871094 789.636719 426.777344 787.226562 427.679688 C 780.890625 429.792969 775.160156 431.902344 774.558594 438.539062 C 774.257812 442.761719 776.667969 446.683594 779.082031 450.601562 C 783.003906 456.636719 787.226562 463.574219 782.703125 472.621094 C 779.988281 478.050781 774.558594 481.066406 769.730469 483.78125 L 768.222656 484.683594 C 751.636719 494.035156 746.207031 504.289062 737.460938 521.179688 L 736.253906 523.589844 C 729.617188 534.148438 714.839844 535.957031 704.585938 532.035156 C 693.726562 528.117188 685.585938 519.671875 678.347656 512.128906 L 667.488281 500.972656 C 664.773438 497.957031 661.152344 494.636719 659.949219 489.8125 C 659.042969 485.589844 659.949219 481.367188 660.851562 477.746094 L 661.152344 477.144531 C 666.582031 453.316406 664.472656 431.601562 654.820312 415.617188 C 644.867188 399.027344 622.246094 386.359375 602.039062 394.203125 L 600.53125 394.804688 C 596.308594 396.617188 590.878906 398.726562 586.355469 395.710938 C 583.941406 394.203125 582.738281 392.09375 581.53125 389.980469 C 580.925781 389.074219 580.625 388.171875 580.023438 387.566406 C 577.308594 384.25 573.085938 382.441406 568.261719 380.628906 C 562.226562 378.519531 556.195312 376.105469 553.480469 370.074219 C 551.972656 367.058594 551.972656 363.742188 551.972656 360.421875 C 551.972656 359.519531 551.972656 358.613281 551.972656 357.40625 C 551.671875 353.484375 550.765625 349.566406 549.558594 345.644531 C 548.355469 341.421875 547.148438 336.898438 546.847656 332.074219 C 545.941406 313.675781 560.71875 298.894531 575.5 291.957031 C 588.769531 285.925781 603.847656 284.417969 618.023438 282.910156 C 620.136719 282.609375 622.246094 282.609375 624.660156 282.308594 C 635.214844 281.101562 645.472656 279.59375 656.027344 277.785156 C 653.613281 275.972656 651.203125 274.464844 648.789062 272.957031 C 638.835938 266.625 628.28125 261.496094 617.722656 256.371094 C 608.375 251.84375 599.023438 247.320312 589.976562 241.890625 C 585.148438 238.875 580.324219 235.558594 578.515625 229.828125 C 576.101562 221.984375 581.230469 213.542969 592.691406 206 C 600.53125 200.875 608.976562 196.046875 617.421875 191.824219 C 616.816406 191.523438 616.214844 191.222656 615.613281 190.621094 C 602.644531 182.777344 585.453125 179.761719 570.371094 177.347656 C 567.65625 177.046875 565.242188 176.445312 562.832031 176.140625 C 522.414062 168.902344 478.984375 187.300781 449.730469 224.699219 L 448.222656 226.511719 C 444.300781 231.636719 440.078125 237.066406 433.742188 240.082031 C 428.316406 242.796875 422.28125 243.097656 417.15625 242.796875 C 401.171875 242.796875 384.882812 239.179688 370.105469 232.542969 C 367.390625 231.335938 364.675781 229.828125 361.960938 228.621094 C 354.121094 224.699219 346.882812 221.082031 338.738281 219.875 C 320.945312 217.765625 303.449219 228.019531 285.957031 239.480469 C 283.542969 240.988281 280.828125 242.796875 279.625 245.511719 C 279.019531 246.71875 279.019531 248.226562 279.625 249.433594 C 279.925781 250.035156 280.226562 250.640625 281.132812 250.941406 C 282.640625 251.542969 284.75 250.335938 286.863281 249.433594 C 298.324219 243.097656 310.992188 237.367188 324.261719 239.179688 C 332.101562 240.382812 339.644531 244.910156 344.167969 251.542969 C 347.785156 256.671875 348.992188 262.703125 347.484375 268.132812 C 346.578125 271.449219 345.070312 274.464844 343.5625 277.179688 C 341.152344 281.703125 339.339844 285.324219 339.945312 289.246094 L 380.660156 285.023438 C 386.996094 284.417969 396.042969 285.324219 400.867188 289.847656 C 402.980469 291.957031 404.1875 294.671875 403.886719 297.6875 C 403.582031 302.515625 399.964844 306.738281 393.027344 310.355469 C 385.488281 313.976562 377.644531 316.390625 370.105469 318.800781 C 364.976562 320.308594 359.550781 322.121094 354.722656 323.929688 C 339.644531 329.660156 329.992188 337.804688 325.46875 347.753906 C 323.65625 351.976562 322.453125 356.804688 321.546875 361.628906 C 320.039062 369.167969 318.230469 377.3125 312.800781 383.34375 C 305.863281 391.1875 295.003906 393.296875 284.75 395.109375 C 273.289062 397.21875 262.433594 399.332031 258.511719 408.679688 C 256.703125 412.902344 256.703125 418.332031 256.703125 423.457031 L 309.484375 426.171875 C 324.5625 427.078125 339.644531 426.476562 355.929688 424.964844 C 362.261719 424.363281 367.390625 422.253906 373.121094 420.140625 C 377.945312 418.332031 383.074219 416.21875 388.804688 415.316406 C 403.582031 412.902344 415.347656 421.347656 426.808594 429.1875 C 434.648438 434.617188 442.792969 440.347656 451.839844 442.160156 C 457.269531 443.363281 463.300781 443.0625 469.332031 443.0625 C 480.792969 442.761719 492.859375 442.460938 500.699219 451.507812 C 510.050781 462.367188 505.527344 479.253906 497.082031 490.113281 C 494.066406 494.035156 490.445312 497.957031 486.828125 501.273438 C 481.097656 507.003906 475.96875 512.734375 472.347656 519.371094 C 468.429688 526.910156 467.222656 535.957031 466.015625 544.402344 L 453.347656 633.679688 C 453.347656 634.582031 452.445312 635.488281 451.238281 635.488281 C 439.777344 636.695312 428.011719 635.488281 417.15625 631.867188 C 413.535156 630.660156 409.617188 628.851562 407.203125 625.535156 C 405.394531 622.820312 404.789062 619.503906 404.488281 616.484375 C 402.375 598.390625 402.074219 579.992188 403.886719 561.894531 L 403.886719 561.292969 C 404.488281 556.46875 404.789062 551.640625 402.980469 547.71875 C 401.472656 544.101562 398.15625 541.085938 395.136719 538.671875 L 336.625 487.699219 C 330.894531 482.574219 325.164062 477.445312 318.230469 474.429688 C 300.132812 465.984375 279.320312 471.714844 259.113281 477.144531 C 256.097656 478.050781 252.78125 478.953125 249.765625 479.558594 C 228.652344 484.988281 157.472656 500.367188 120.074219 466.890625 C 118.566406 465.683594 117.359375 464.175781 115.851562 462.667969 C 114.042969 460.859375 112.234375 459.046875 110.421875 457.539062 C 108.011719 455.730469 105.296875 454.523438 102.28125 453.316406 C 98.660156 451.808594 95.039062 450.300781 92.023438 447.890625 C 91.121094 446.984375 91.121094 445.777344 91.722656 444.570312 C 92.628906 443.667969 93.835938 443.667969 95.039062 444.269531 C 97.453125 446.378906 100.769531 447.585938 104.089844 449.09375 C 107.105469 450.300781 110.421875 451.507812 113.136719 453.621094 C 115.550781 455.429688 117.359375 457.238281 119.167969 459.351562 C 120.375 460.859375 121.582031 462.0625 123.089844 463.269531 C 158.679688 494.9375 228.351562 480.160156 248.558594 474.730469 C 251.574219 473.828125 254.890625 472.921875 257.90625 472.320312 C 278.71875 466.589844 300.433594 460.554688 320.039062 469.605469 C 327.578125 473.222656 333.609375 478.351562 339.644531 483.78125 L 398.15625 534.75 C 401.472656 537.765625 405.089844 540.785156 407.203125 545.609375 C 409.3125 550.734375 408.710938 556.46875 408.410156 561.59375 L 408.410156 562.199219 C 406.597656 579.992188 406.902344 598.089844 409.011719 615.882812 C 409.3125 618.597656 409.617188 621.011719 411.125 623.121094 C 412.933594 625.535156 415.949219 626.742188 418.964844 627.949219 C 428.617188 631.265625 439.171875 632.472656 449.425781 631.566406 L 461.792969 544.101562 C 463 535.65625 464.507812 526.003906 468.730469 517.558594 C 472.652344 510.019531 478.382812 503.988281 483.808594 498.257812 C 487.128906 494.636719 490.746094 491.320312 493.460938 487.398438 C 501 477.746094 504.621094 463.269531 497.382812 454.523438 C 491.050781 447.285156 480.492188 447.285156 469.636719 447.585938 C 463.601562 447.585938 456.96875 447.890625 451.238281 446.683594 C 441.285156 444.570312 432.839844 438.839844 424.394531 432.808594 C 413.234375 424.96875 402.679688 417.726562 389.710938 419.539062 C 384.28125 420.441406 379.757812 422.253906 374.929688 424.0625 C 369.199219 426.171875 363.46875 428.585938 356.53125 429.1875 C 339.945312 430.699219 324.5625 431 309.484375 430.394531 L 256.703125 427.679688 C 256.398438 434.316406 255.496094 440.648438 250.066406 444.871094 C 243.429688 449.699219 234.382812 447.890625 228.652344 444.570312 C 225.335938 442.761719 223.222656 440.347656 222.320312 437.9375 C 220.207031 432.507812 224.128906 426.476562 228.953125 424.363281 C 233.476562 422.253906 238.90625 422.554688 243.128906 422.554688 L 252.175781 423.15625 C 252.175781 417.726562 252.175781 411.996094 254.589844 406.871094 C 259.71875 395.410156 272.082031 392.996094 284.148438 390.582031 C 293.800781 388.773438 303.753906 386.664062 309.785156 380.027344 C 314.308594 374.898438 315.816406 367.964844 317.324219 360.421875 C 318.230469 355.597656 319.433594 350.46875 321.546875 345.644531 C 326.675781 334.484375 337.230469 325.4375 353.515625 319.40625 C 358.644531 317.292969 364.074219 315.785156 369.199219 314.277344 C 376.742188 311.863281 384.582031 309.753906 391.519531 306.132812 C 395.136719 304.324219 399.664062 301.308594 399.964844 297.386719 C 399.964844 295.578125 399.359375 294.371094 398.15625 293.164062 C 394.835938 289.847656 387.296875 288.941406 381.566406 289.546875 L 339.039062 293.769531 C 338.136719 293.769531 337.230469 293.46875 336.628906 292.5625 C 333.914062 286.53125 336.929688 280.800781 339.945312 275.070312 C 341.453125 272.355469 342.660156 269.640625 343.5625 266.925781 C 344.769531 261.496094 342.960938 256.972656 340.847656 253.957031 C 337.230469 248.527344 330.59375 244.304688 323.960938 243.398438 C 311.894531 241.890625 300.433594 247.019531 289.273438 253.351562 C 287.164062 254.558594 283.542969 256.671875 279.625 255.164062 C 277.8125 254.558594 276.304688 253.050781 275.703125 251.242188 C 274.796875 248.828125 274.796875 246.113281 276.003906 243.703125 C 277.8125 240.082031 281.132812 237.667969 283.847656 235.859375 C 302.242188 223.796875 320.039062 212.9375 339.945312 215.953125 C 348.691406 217.160156 356.835938 221.082031 364.375 225.003906 C 367.089844 226.207031 369.804688 227.71875 372.519531 228.921875 C 386.695312 235.257812 402.375 238.574219 417.757812 238.875 C 422.28125 238.875 427.710938 238.574219 432.234375 236.464844 C 437.363281 234.050781 441.285156 228.921875 444.902344 224.097656 L 446.410156 221.984375 C 476.570312 183.378906 521.511719 164.078125 563.734375 171.917969 C 566.148438 172.222656 568.863281 172.824219 571.277344 173.125 C 586.960938 175.839844 604.453125 178.855469 618.328125 187 C 619.835938 187.90625 621.039062 188.808594 622.246094 189.714844 C 635.519531 183.078125 649.390625 177.648438 663.867188 173.429688 C 667.488281 172.523438 676.234375 170.410156 682.570312 173.730469 C 685.28125 175.238281 687.09375 177.648438 687.996094 180.96875 C 691.011719 192.128906 675.933594 199.0625 671.109375 200.875 C 668.695312 201.777344 665.980469 202.382812 663.867188 202.683594 C 656.027344 203.890625 644.566406 204.492188 633.40625 201.476562 C 628.28125 199.96875 624.960938 197.554688 621.644531 194.84375 C 612.597656 199.367188 603.847656 204.492188 595.40625 209.921875 C 589.976562 213.542969 580.925781 220.78125 583.339844 228.621094 C 584.546875 232.542969 588.46875 235.558594 592.691406 237.972656 C 601.4375 243.097656 610.785156 247.925781 620.136719 252.148438 C 630.691406 257.273438 641.550781 262.402344 651.804688 269.035156 C 655.425781 271.449219 659.042969 273.863281 662.664062 276.578125 C 680.457031 272.957031 698.253906 268.132812 715.445312 262.402344 C 735.652344 255.464844 749.222656 256.972656 755.253906 267.226562 C 757.667969 271.148438 758.273438 276.578125 757.367188 282.003906 C 755.859375 290.148438 750.730469 297.085938 742.589844 301.910156 C 731.730469 308.546875 716.347656 310.054688 703.378906 306.132812 C 689.203125 301.609375 677.140625 292.863281 665.378906 284.117188 C 664.171875 283.210938 662.964844 282.308594 661.757812 281.402344 C 649.996094 283.816406 637.929688 285.625 625.867188 286.832031 C 623.753906 287.132812 621.644531 287.132812 619.230469 287.433594 C 605.359375 288.941406 590.878906 290.148438 577.910156 295.878906 C 564.339844 301.910156 551.070312 315.484375 551.972656 331.46875 C 552.273438 335.691406 553.179688 339.613281 554.386719 344.136719 C 555.59375 348.359375 556.800781 352.582031 557.101562 356.804688 C 557.101562 357.707031 557.101562 358.914062 557.101562 359.820312 C 557.101562 362.535156 557.101562 365.25 558.308594 367.660156 C 560.417969 371.882812 565.242188 373.996094 570.671875 375.804688 C 575.800781 377.613281 581.230469 379.726562 584.546875 384.25 C 585.148438 385.15625 585.753906 386.359375 586.355469 387.265625 C 587.261719 389.074219 588.167969 390.582031 589.675781 391.1875 C 592.386719 392.695312 596.308594 391.1875 599.929688 389.980469 L 601.4375 389.378906 C 623.753906 380.628906 648.789062 394.503906 659.648438 412.902344 C 669.902344 429.792969 672.3125 452.714844 666.582031 477.746094 L 666.28125 478.351562 C 665.378906 481.96875 664.773438 485.289062 665.378906 488.304688 C 666.28125 491.921875 668.996094 494.636719 671.710938 497.351562 L 682.570312 508.511719 C 689.503906 515.75 697.347656 523.894531 707.300781 527.511719 C 716.046875 530.832031 728.109375 529.625 733.539062 520.878906 L 734.746094 518.765625 C 743.792969 501.875 749.523438 490.71875 767.320312 480.460938 L 768.828125 479.558594 C 773.351562 477.144531 777.875 474.429688 779.988281 470.507812 C 783.304688 463.875 780.289062 458.746094 776.667969 453.015625 C 773.652344 448.492188 770.636719 443.667969 771.242188 437.9375 C 772.144531 428.285156 779.988281 425.871094 786.925781 423.457031 C 789.335938 422.554688 792.050781 421.648438 794.164062 420.441406 C 812.863281 410.1875 818.59375 389.980469 822.816406 369.773438 C 822.816406 369.167969 823.417969 368.566406 824.019531 368.265625 C 824.625 367.964844 825.226562 367.964844 825.832031 368.265625 C 832.164062 370.679688 838.195312 372.789062 843.625 371.28125 C 846.640625 370.679688 849.355469 368.265625 850.863281 365.550781 C 851.46875 364.042969 852.070312 362.234375 851.164062 360.121094 C 850.5625 358.914062 849.054688 356.804688 847.246094 354.996094 C 843.023438 349.867188 838.195312 344.4375 840.007812 339.007812 C 840.609375 337.199219 841.816406 335.691406 843.625 335.089844 C 846.339844 334.183594 850.261719 334.785156 853.277344 336.597656 C 856.898438 339.007812 860.515625 341.121094 864.136719 343.230469 C 870.167969 346.851562 876.5 350.46875 882.230469 354.996094 C 894.597656 365.550781 904.25 378.820312 913.296875 392.089844 C 917.820312 388.773438 923.25 386.664062 928.980469 385.457031 C 955.523438 380.628906 980.554688 400.839844 989.300781 423.457031 C 998.652344 446.984375 993.523438 462.96875 986.886719 484.683594 L 986.285156 487.097656 C 985.078125 490.714844 985.078125 494.636719 985.078125 498.257812 C 985.078125 504.589844 989 507.304688 993.523438 510.925781 C 995.332031 512.128906 996.839844 513.640625 998.652344 515.148438 L 999.859375 516.351562 C 1005.890625 521.78125 1011.015625 526.609375 1018.558594 529.625 C 1022.175781 530.832031 1026.097656 532.035156 1030.019531 532.941406 C 1036.953125 534.75 1043.890625 536.257812 1050.226562 540.480469 C 1060.480469 547.71875 1065.609375 560.992188 1062.589844 573.355469 C 1062.289062 573.960938 1061.988281 574.5625 1061.386719 574.863281 C 1060.78125 575.167969 1060.179688 575.167969 1059.574219 574.863281 C 1037.859375 564.308594 1011.320312 564.910156 990.207031 576.675781 C 986.886719 591.753906 984.476562 612.265625 997.746094 621.613281 C 1001.96875 624.628906 1007.097656 625.835938 1012.828125 627.042969 C 1017.652344 628.25 1022.78125 629.457031 1027.304688 631.867188 C 1036.351562 636.996094 1042.6875 646.949219 1046.304688 662.632812 C 1046.90625 665.042969 1047.511719 667.757812 1048.113281 670.472656 C 1049.925781 679.21875 1051.734375 688.269531 1056.558594 695.507812 C 1061.988281 704.554688 1073.75 711.492188 1083.402344 706.96875 C 1087.625 705.160156 1091.242188 700.9375 1094.261719 697.617188 C 1102.101562 688.570312 1110.847656 678.015625 1115.070312 665.949219 C 1118.691406 655.394531 1118.085938 640.613281 1108.738281 632.167969 C 1107.53125 631.265625 1106.324219 630.058594 1104.816406 629.152344 C 1102.101562 627.042969 1099.085938 624.929688 1097.277344 621.914062 C 1095.164062 618.898438 1095.164062 614.375 1096.671875 611.058594 C 1097.878906 608.644531 1099.992188 607.136719 1102.402344 606.535156 C 1104.816406 606.230469 1106.925781 607.136719 1108.738281 608.042969 L 1109.640625 608.34375 C 1117.484375 611.359375 1124.117188 611.660156 1128.339844 608.945312 C 1131.960938 606.535156 1134.070312 601.707031 1134.070312 595.070312 C 1134.070312 583.914062 1125.628906 570.945312 1118.085938 559.179688 C 1115.371094 554.957031 1112.65625 551.039062 1110.847656 547.417969 C 1107.53125 541.386719 1103.910156 534.75 1098.179688 530.832031 C 1095.464844 529.019531 1092.449219 527.8125 1089.132812 526.609375 C 1087.324219 526.003906 1085.210938 525.101562 1083.402344 524.195312 C 1066.8125 516.351562 1050.226562 500.667969 1041.78125 484.984375 C 1040.273438 482.273438 1027.304688 456.636719 1034.84375 443.363281 C 1037.558594 438.839844 1042.082031 436.429688 1048.417969 436.125 C 1055.050781 435.824219 1060.78125 439.746094 1066.210938 443.667969 C 1071.640625 447.585938 1076.765625 451.207031 1081.894531 449.699219 C 1086.417969 448.191406 1089.132812 443.0625 1091.847656 438.238281 L 1092.753906 436.730469 C 1099.992188 423.457031 1110.246094 414.109375 1122.007812 410.792969 C 1136.183594 406.570312 1151.566406 411.996094 1158.199219 423.457031 C 1160.613281 427.679688 1162.121094 434.617188 1158.503906 439.445312 C 1154.882812 443.96875 1148.851562 444.269531 1143.722656 444.570312 C 1139.199219 444.871094 1134.976562 444.871094 1132.5625 447.285156 C 1126.53125 452.714844 1133.167969 463.574219 1138.292969 469.304688 C 1142.820312 474.429688 1147.945312 480.160156 1154.582031 482.875 C 1166.042969 487.398438 1179.011719 481.066406 1187.457031 473.828125 C 1196.503906 465.683594 1203.140625 455.128906 1208.265625 444.269531 C 1205.855469 443.363281 1203.742188 441.855469 1201.933594 439.746094 C 1197.410156 434.617188 1196.804688 427.378906 1200.125 419.234375 C 1203.441406 411.394531 1210.679688 403.25 1217.011719 402.949219 C 1219.726562 402.949219 1221.839844 404.15625 1223.347656 406.871094 C 1225.761719 411.695312 1224.253906 417.125 1222.441406 421.949219 C 1220.03125 427.984375 1217.617188 434.617188 1214.902344 440.953125 C 1220.332031 441.554688 1226.664062 440.648438 1232.394531 439.445312 L 1235.109375 438.839844 C 1248.078125 436.730469 1259.539062 437.632812 1268.890625 441.855469 C 1280.351562 446.984375 1288.492188 457.539062 1289.699219 468.699219 C 1289.699219 469.605469 1289.398438 470.507812 1288.796875 470.8125 C 1284.875 473.222656 1280.050781 472.621094 1275.523438 472.015625 C 1269.492188 471.113281 1267.382812 471.414062 1266.777344 473.523438 C 1266.175781 475.335938 1267.683594 477.746094 1271.605469 480.765625 C 1290.90625 495.542969 1311.71875 509.71875 1333.734375 507.304688 C 1337.355469 507.003906 1340.972656 506.097656 1344.59375 505.195312 C 1347.308594 504.589844 1350.023438 503.988281 1353.039062 503.382812 C 1357.5625 502.78125 1362.085938 502.480469 1366.609375 502.480469 C 1354.242188 484.082031 1341.273438 466.285156 1327.703125 449.09375 C 1299.050781 412.902344 1267.382812 378.820312 1233.300781 347.753906 C 1076.464844 206.605469 867.753906 125.773438 658.441406 125.773438 C 419.871094 125.773438 190.953125 227.113281 30.496094 403.554688 C 29.59375 404.457031 28.085938 404.457031 27.179688 403.554688 C 26.273438 402.648438 26.273438 401.140625 27.179688 400.234375 C 106.5 313.371094 200.601562 244.910156 307.671875 196.652344 C 418.058594 146.585938 536.289062 121.25 658.441406 121.25 C 764 121.25 867.753906 140.855469 966.980469 179.160156 C 1066.511719 217.765625 1156.089844 273.257812 1233.902344 344.4375 C 1267.984375 375.804688 1299.953125 410.1875 1328.910156 446.378906 C 1343.085938 464.175781 1356.355469 482.875 1369.023438 501.574219 C 1369.324219 501.875 1369.625 502.480469 1369.925781 503.082031 C 1376.261719 503.988281 1382.292969 505.496094 1388.023438 508.210938 C 1397.375 512.433594 1404.308594 518.464844 1408.230469 525.402344 C 1413.058594 534.148438 1412.453125 545.003906 1407.023438 551.941406 C 1405.816406 553.449219 1404.613281 554.054688 1402.800781 553.753906 C 1395.5625 553.148438 1384.707031 537.164062 1369.625 511.527344 C 1368.722656 510.019531 1367.816406 508.511719 1367.210938 507.304688 C 1362.085938 506.703125 1356.65625 507.003906 1351.53125 507.910156 C 1348.816406 508.210938 1346.101562 509.113281 1343.386719 509.71875 C 1339.765625 510.621094 1335.847656 511.527344 1331.925781 511.828125 C 1308.097656 514.542969 1286.382812 499.765625 1266.476562 484.382812 C 1264.367188 482.875 1258.332031 478.351562 1260.144531 472.320312 C 1261.953125 465.984375 1268.585938 466.890625 1273.714844 467.792969 C 1277.03125 468.097656 1280.351562 468.699219 1282.761719 467.792969 C 1281.253906 458.746094 1274.316406 450.601562 1264.96875 446.078125 C 1256.222656 442.160156 1245.96875 441.253906 1233.902344 443.363281 L 1231.1875 443.96875 C 1224.554688 445.175781 1217.316406 446.378906 1210.980469 445.175781 C 1205.550781 456.9375 1198.617188 468.097656 1188.964844 476.84375 C 1179.613281 484.988281 1165.136719 491.921875 1151.566406 486.796875 C 1144.023438 483.78125 1138.292969 477.445312 1133.46875 472.015625 C 1125.929688 463.574219 1119.894531 450.90625 1128.039062 443.667969 C 1131.960938 440.046875 1137.390625 440.046875 1142.214844 439.746094 C 1147.039062 439.445312 1151.261719 439.445312 1153.675781 436.429688 C 1156.089844 433.410156 1155.183594 428.886719 1153.074219 425.570312 C 1147.644531 415.917969 1134.070312 411.394531 1122.007812 415.015625 C 1107.832031 419.238281 1099.386719 431.601562 1095.464844 438.839844 L 1094.5625 440.347656 C 1091.546875 445.777344 1088.53125 452.113281 1081.894531 454.222656 C 1074.355469 456.636719 1068.320312 452.113281 1061.988281 447.585938 C 1057.164062 443.96875 1052.335938 440.347656 1047.210938 440.953125 C 1042.382812 441.253906 1039.066406 442.761719 1037.257812 446.078125 C 1032.128906 455.128906 1039.667969 474.429688 1044.195312 483.175781 C 1052.035156 497.957031 1067.71875 513.035156 1083.703125 520.574219 C 1085.511719 521.480469 1087.324219 522.082031 1089.132812 522.6875 C 1092.449219 523.894531 1096.070312 525.402344 1099.085938 527.511719 C 1105.722656 532.035156 1109.945312 539.273438 1113.261719 545.910156 C 1115.070312 549.53125 1117.785156 553.449219 1120.5 557.371094 C 1128.339844 569.4375 1137.085938 583.308594 1137.085938 595.675781 C 1137.085938 606.230469 1132.867188 611.058594 1129.546875 613.167969 C 1124.117188 616.789062 1115.976562 616.789062 1106.625 613.167969 L 1105.417969 612.566406 C 1103.910156 611.960938 1102.402344 611.359375 1101.195312 611.359375 C 1100.292969 611.359375 1099.386719 611.960938 1098.785156 613.167969 C 1097.878906 614.976562 1098.179688 617.996094 1099.085938 619.804688 C 1100.59375 622.21875 1103.007812 624.027344 1105.417969 625.835938 C 1106.925781 626.742188 1108.132812 627.949219 1109.640625 629.152344 C 1120.5 638.804688 1121.40625 655.394531 1117.484375 667.457031 C 1113.261719 680.425781 1103.910156 690.984375 1096.070312 700.632812 C 1092.75 704.554688 1089.132812 708.777344 1083.703125 711.191406 C 1081.289062 712.699219 1078.578125 713 1075.863281 713 Z M 1372.941406 508.511719 C 1373.246094 508.8125 1373.246094 509.113281 1373.546875 509.417969 C 1379.878906 520.273438 1396.769531 549.226562 1403.105469 549.53125 C 1403.105469 549.53125 1403.40625 549.53125 1403.40625 549.226562 C 1407.628906 543.800781 1407.929688 534.75 1404.308594 527.8125 C 1400.085938 519.972656 1392.246094 515.148438 1386.515625 512.734375 C 1381.992188 510.621094 1377.46875 509.417969 1372.941406 508.511719 Z M 238.304688 426.476562 C 235.589844 426.476562 232.875 426.777344 230.460938 427.984375 C 227.445312 429.492188 225.03125 433.109375 225.9375 436.125 C 226.539062 437.632812 228.050781 439.140625 230.460938 440.347656 C 234.984375 443.0625 241.921875 444.570312 246.75 440.953125 C 250.667969 437.9375 251.574219 433.109375 251.574219 427.078125 L 242.222656 426.476562 C 241.019531 426.476562 239.511719 426.476562 238.304688 426.476562 Z M 911.183594 399.332031 C 906.058594 404.15625 902.4375 410.1875 901.835938 416.523438 C 900.929688 423.15625 903.945312 430.394531 909.074219 435.523438 C 913.296875 439.445312 918.421875 441.554688 923.550781 441.253906 C 928.980469 428.585938 921.136719 413.808594 912.390625 400.839844 C 912.089844 400.535156 911.488281 399.933594 911.183594 399.332031 Z M 1215.503906 407.472656 C 1215.503906 407.472656 1215.203125 407.472656 1215.503906 407.472656 C 1211.886719 407.472656 1205.550781 413.503906 1202.535156 421.046875 C 1201.027344 424.664062 1199.21875 431.601562 1203.742188 436.730469 C 1205.25 438.238281 1206.757812 439.445312 1208.570312 440.046875 C 1211.585938 433.410156 1213.996094 426.777344 1216.410156 420.441406 C 1217.917969 416.523438 1219.125 412.300781 1217.617188 408.980469 C 1216.710938 407.773438 1216.109375 407.472656 1215.503906 407.472656 Z M 667.1875 280.496094 C 667.488281 280.496094 667.488281 280.496094 667.1875 280.496094 C 678.949219 289.246094 690.710938 297.6875 704.285156 301.910156 C 716.046875 305.53125 729.921875 304.023438 739.875 297.992188 C 744.699219 294.976562 750.730469 289.847656 752.539062 281.101562 C 753.445312 276.878906 752.84375 272.65625 751.03125 269.640625 C 746.207031 261.496094 734.746094 260.59375 716.648438 266.925781 C 700.363281 272.355469 684.078125 276.878906 667.1875 280.496094 Z M 626.167969 192.730469 C 628.582031 194.539062 630.992188 196.046875 634.613281 196.953125 C 642.757812 199.367188 653.011719 199.667969 663.265625 198.160156 C 665.074219 197.859375 667.488281 197.554688 669.296875 196.652344 C 672.011719 195.445312 685.28125 190.015625 683.472656 182.175781 C 682.871094 180.0625 681.964844 178.554688 680.15625 177.648438 C 675.328125 174.9375 667.488281 177.046875 665.074219 177.648438 C 651.804688 181.871094 638.835938 186.699219 626.167969 192.730469 Z M 626.167969 192.730469 "/></g></g></svg>